HIERARCHY
ROOT root
{
	OFFSET	0	13.1	24.9
	CHANNELS 6  Xposition Yposition Zposition Xrotation Yrotation Zrotation
	JOINT spine_1
	{
		OFFSET	0	9.99999	0
		CHANNELS 3  Xrotation Yrotation Zrotation
		JOINT spine_2
		{
			OFFSET	0	112	-10
			CHANNELS 3  Xrotation Yrotation Zrotation
			JOINT spine_3
			{
				OFFSET	0	206.5	19.3
				CHANNELS 3  Xrotation Yrotation Zrotation
				JOINT spine_4
				{
					OFFSET	0	110.4	14.6
					CHANNELS 3  Xrotation Yrotation Zrotation
					JOINT neck_1
					{
						OFFSET	0	71.8	-50.3
						CHANNELS 3  Xrotation Yrotation Zrotation
						JOINT neck_2
						{
							OFFSET	0	86.2	-25.8
							CHANNELS 3  Xrotation Yrotation Zrotation
							JOINT head_ee
							{
								OFFSET	0	179.8	-8.7
								CHANNELS 3  Xrotation Yrotation Zrotation
								End Site
								{
									OFFSET	1	0	0
								}
							}
						}
					}
					JOINT left_clavicle
					{
						OFFSET	-43.2	22.4	-70.8
						CHANNELS 3  Xrotation Yrotation Zrotation
						JOINT left_shoulder
						{
							OFFSET	-93.9	-5.79999	48.7
							CHANNELS 3  Xrotation Yrotation Zrotation
							JOINT left_elbow
							{
								OFFSET	-291.4	-30.8	15.2
								CHANNELS 3  Xrotation Yrotation Zrotation
								JOINT left_lowarm_twist
								{
									OFFSET	-110.7	-3.89999	13.6
									CHANNELS 3  Xrotation Yrotation Zrotation
									JOINT left_hand
									{
										OFFSET	-110.7	-3.89999	13.6
										CHANNELS 3  Xrotation Yrotation Zrotation
										JOINT left_ee
										{
											OFFSET	-80.8	-5.10001	12.1
											CHANNELS 3  Xrotation Yrotation Zrotation
											End Site
											{
												OFFSET	1	0	0
											}
										}
									}
								}
							}
						}
					}
					JOINT right_clavicle
					{
						OFFSET	43.2	22.4	-70.8
						CHANNELS 3  Xrotation Yrotation Zrotation
						JOINT right_shoulder
						{
							OFFSET	93.9	-5.79999	48.7
							CHANNELS 3  Xrotation Yrotation Zrotation
							JOINT right_elbow
							{
								OFFSET	291.4	-30.8	15.2
								CHANNELS 3  Xrotation Yrotation Zrotation
								JOINT right_lowarm_twist
								{
									OFFSET	110.7	-3.89999	13.6
									CHANNELS 3  Xrotation Yrotation Zrotation
									JOINT right_hand
									{
										OFFSET	110.7	-3.89999	13.6
										CHANNELS 3  Xrotation Yrotation Zrotation
										JOINT right_ee
										{
											OFFSET	80.8	-5.10001	12.1
											CHANNELS 3  Xrotation Yrotation Zrotation
											End Site
											{
												OFFSET	1	0	0
											}
										}
									}
								}
							}
						}
					}
				}
			}
		}
	}
	JOINT left_hip
	{
		OFFSET	-82.8	-127.5	0.300001
		CHANNELS 3  Xrotation Yrotation Zrotation
		JOINT left_knee
		{
			OFFSET	-28.2	-396.7	2.2
			CHANNELS 3  Xrotation Yrotation Zrotation
			JOINT left_ankle
			{
				OFFSET	-11.7	-411.3	35.4
				CHANNELS 3  Xrotation Yrotation Zrotation
				JOINT left_toes
				{
					OFFSET	0	-60	-88.6
					CHANNELS 3  Xrotation Yrotation Zrotation
					JOINT left_foot_ee
					{
						OFFSET	-22.5	-16.5	-42.2
						CHANNELS 3  Xrotation Yrotation Zrotation
						End Site
						{
							OFFSET	1	0	0
						}
					}
				}
			}
		}
	}
	JOINT right_hip
	{
		OFFSET	82.8	-127.5	0.300001
		CHANNELS 3  Xrotation Yrotation Zrotation
		JOINT right_knee
		{
			OFFSET	28.2	-396.7	2.2
			CHANNELS 3  Xrotation Yrotation Zrotation
			JOINT right_ankle
			{
				OFFSET	11.7	-411.3	35.4
				CHANNELS 3  Xrotation Yrotation Zrotation
				JOINT right_toes
				{
					OFFSET	0	-60	-88.6
					CHANNELS 3  Xrotation Yrotation Zrotation
					JOINT right_foot_ee
					{
						OFFSET	22.5	-16.5	-42.2
						CHANNELS 3  Xrotation Yrotation Zrotation
						End Site
						{
							OFFSET	1	0	0
						}
					}
				}
			}
		}
	}
}
MOTION
Frames: 9
Frame Time: 0.02
2986.71560737 701.707 -1866.80343566 -9.64145012353 18.9008300729 6.64395124427 5.28537 0.11871 -0.669757 5.2856 0.161086 -0.660846 5.28354 0.23876 -0.636915 5.283 0.135177 -0.666628 -15.3467 3.97456 -2.17354 -15.4052 8.88455 -0.706427 -0.0 0.0 -0.0 6.50063 13.7364 12.3489 -47.335 -57.0035 32.275 0.61501 -16.9439 0.0916071 -1.39309 -0.0511629 0.170539 -7.34338 -19.2577 -75.22 -0.0 0.0 -0.0 10.5319 23.0314 -20.3514 -29.1147 16.5686 -63.2754 0.959698 25.4263 -0.216513 52.0618 1.12034 6.32955 -0.0655402 -4.07511 -1.27516 0.0 0.0 0.0 21.8887 14.4313 -3.64023 -8.9889 0.264432 1.35276 38.1105 25.3268 -4.99292 36.8373 -0.0 -0.0 -0.0 0.0 -0.0 38.3906 20.2596 -8.45063 -64.7763 2.73721 -9.02981 10.1826 -28.843 1.54886 2.46942 -0.0 -0.0 0.0 0.0 0.0 
2968.37277538 702.399 -1863.58510263 -9.3940211574 22.2743169572 7.02650780407 4.79487 0.0475403 -0.744724 4.79517 0.0948314 -0.74019 4.79371 0.188618 -0.722011 4.79299 0.0722265 -0.742737 -16.5457 3.6862 -1.46922 -16.605 7.90666 -0.057412 -0.0 0.0 -0.0 7.0115 13.3564 13.2362 -50.7316 -59.1565 28.0401 0.600423 -16.5643 0.0874019 -3.32506 -0.128958 0.404914 -7.45745 -17.7532 -76.9568 -0.0 0.0 -0.0 9.92666 21.0487 -19.1594 -30.4843 20.9607 -61.5609 0.800804 21.6379 -0.153038 49.116 0.906251 6.019 1.34265 -3.97926 -10.5845 0.0 0.0 0.0 19.9273 12.9245 -2.64164 -8.41386 0.253903 1.26515 40.1925 25.6073 -5.20663 36.613 -0.0 -0.0 -0.0 0.0 -0.0 40.1391 16.8683 -8.02788 -61.3213 2.34434 -8.66938 11.0152 -28.1726 1.66383 -0.471798 0.0 0.0 0.0 0.0 0.0 
2964.38190673 702.399 -1859.2091737 -9.47628938867 23.4484468249 7.23825350373 4.79487 0.0475403 -0.744724 4.79517 0.0948314 -0.74019 4.79371 0.188618 -0.722011 4.79299 0.0722265 -0.742737 -16.5457 3.6862 -1.46922 -16.605 7.90666 -0.057412 -0.0 0.0 -0.0 7.0115 13.3564 13.2362 -50.7316 -59.1565 28.0401 0.600423 -16.5643 0.0874019 -3.32506 -0.128958 0.404914 -7.45745 -17.7532 -76.9568 -0.0 0.0 -0.0 9.92666 21.0487 -19.1594 -30.4843 20.9607 -61.5609 0.800804 21.6379 -0.153038 49.116 0.906251 6.019 1.34265 -3.97926 -10.5845 0.0 0.0 0.0 19.9273 12.9245 -2.64164 -8.41386 0.253903 1.26515 40.1925 25.6073 -5.20663 36.613 -0.0 -0.0 -0.0 0.0 -0.0 40.1391 16.8683 -8.02788 -61.3213 2.34434 -8.66938 11.0152 -28.1726 1.66383 -0.471798 0.0 0.0 0.0 0.0 0.0 
2951.95107757 705.415 -1856.19735933 -9.81149955337 27.5396798416 7.97884583352 4.41158 0.0209867 -0.5726 4.41176 0.0573796 -0.570104 4.41106 0.133464 -0.557224 4.41063 0.043787 -0.571309 -15.9572 4.48433 -0.508958 -16.0335 8.88818 1.0852 -0.0 0.0 -0.0 6.78339 13.6771 12.8305 -51.2901 -60.1093 21.1585 0.640461 -17.6025 0.0991641 -0.858749 -0.0310478 0.105271 -7.38427 -21.9101 -77.439 -0.0 0.0 -0.0 11.0747 17.1144 -22.0022 -30.7484 19.0427 -58.9159 0.595146 16.4266 -0.0859035 43.7166 0.556562 5.42324 2.81527 1.11895 -18.7245 0.0 0.0 0.0 17.9353 13.0484 -2.54979 -4.33929 0.154181 0.647943 35.6898 26.0941 -4.76758 31.0151 -0.0 -0.0 -0.0 0.0 -0.0 42.8877 11.8253 -8.40474 -57.7249 1.95939 -8.27004 7.28165 -28.4649 1.11425 -1.58715 0.0 0.0 0.0 0.0 0.0 
2870.94362058 701.024 -1905.34767276 -10.3834941093 28.9030531769 5.3957518226 5.20139 0.0582108 0.10636 5.20139 0.0513249 0.109849 5.20149 0.0376936 0.11524 5.20147 0.0554205 0.10784 -17.9031 3.60064 -1.04316 -17.9675 7.49235 0.400614 -0.0 0.0 -0.0 5.82894 17.1751 11.0999 -61.7908 -70.4026 -0.441386 0.310981 -8.7578 0.0238135 2.40318 0.0784523 -0.296897 -7.07267 -23.3217 -71.6338 -0.0 0.0 -0.0 11.3903 11.582 -22.8951 -39.2223 20.5342 -59.5484 0.471774 13.1543 -0.0543958 32.5497 0.0194639 4.10256 3.98455 1.66897 -27.0317 0.0 0.0 0.0 9.68428 24.9945 2.5628 -3.49675 0.128096 0.521271 40.906 12.7503 -4.9822 10.5399 -0.0 -0.0 -0.0 0.0 -0.0 45.2279 -9.03644 -2.54471 -43.7066 0.71926 -6.50921 6.47243 3.9678 0.951667 -3.15025 0.0 0.0 0.0 0.0 0.0 
2868.19442203 701.024 -1901.73942955 -10.4515409655 29.5643848812 5.53508314545 5.20139 0.0582108 0.10636 5.20139 0.0513249 0.109849 5.20149 0.0376936 0.11524 5.20147 0.0554205 0.10784 -17.9031 3.60064 -1.04316 -17.9675 7.49235 0.400614 -0.0 0.0 -0.0 5.82894 17.1751 11.0999 -61.7908 -70.4026 -0.441386 0.310981 -8.7578 0.0238135 2.40318 0.0784523 -0.296897 -7.07267 -23.3217 -71.6338 -0.0 0.0 -0.0 11.3903 11.582 -22.8951 -39.2223 20.5342 -59.5484 0.471774 13.1543 -0.0543958 32.5497 0.0194639 4.10256 3.98455 1.66897 -27.0317 0.0 0.0 0.0 9.68428 24.9945 2.5628 -3.49675 0.128096 0.521271 40.906 12.7503 -4.9822 10.5399 -0.0 -0.0 -0.0 0.0 -0.0 45.2279 -9.03644 -2.54471 -43.7066 0.71926 -6.50921 6.47243 3.9678 0.951667 -3.15025 0.0 0.0 0.0 0.0 0.0 
2850.12360452 699.225 -1907.84288622 -11.4292169471 29.58333888 6.15123798926 5.23388 -0.0738224 -0.000337654 5.23387 -0.0736513 -0.00503448 5.23388 -0.0725133 -0.0138447 5.23389 -0.0737898 -0.00221884 -16.4642 3.17212 -1.05117 -16.5072 6.68372 0.144403 -0.0 0.0 -0.0 5.32229 17.7599 10.2804 -62.4461 -70.6204 -3.7047 0.434508 -12.1474 0.0462339 4.6866 0.141389 -0.58177 -7.17329 -22.0819 -73.0423 -0.0 0.0 -0.0 11.2402 10.5806 -22.5688 -40.3074 21.135 -58.2231 0.452502 12.6346 -0.0500952 29.883 -0.0699562 3.77374 4.41399 2.16317 -30.1105 0.0 0.0 0.0 9.18521 24.4049 3.38708 -4.76402 0.166624 0.711939 41.1008 11.2898 -4.98314 5.17815 -0.0 -0.0 -0.0 0.0 -0.0 45.6277 -11.3556 -1.98503 -38.5752 0.378619 -5.79779 4.46898 9.23626 0.677552 -4.99232 0.0 0.0 0.0 0.0 0.0 
2834.26283395 697.136 -1922.68865016 -11.7162492389 27.8733993203 5.16731873706 5.20987 -0.0591137 0.0517728 5.20987 -0.0622884 0.0479063 5.20982 -0.0676085 0.0400492 5.20982 -0.060435 0.0502241 -16.7064 3.11763 0.529078 -16.7394 5.68516 1.61944 -0.0 0.0 -0.0 5.37196 17.7831 10.3575 -64.6306 -71.4264 -6.63323 0.40941 -11.4648 0.0410987 2.43459 0.0793952 -0.300799 -7.20635 -20.5756 -73.0568 -0.0 0.0 -0.0 11.1921 11.8845 -22.4462 -39.8237 20.4223 -59.2712 0.368982 10.3585 -0.0334455 29.3099 -0.0871675 3.70256 4.73954 0.618078 -33.3622 0.0 0.0 0.0 7.89237 27.7048 5.31767 -5.427 0.185096 0.812007 40.9916 8.08276 -4.95039 -0.543524 0.0 0.0 -0.0 0.0 -0.0 46.4465 -15.2548 -0.0159264 -30.5639 -0.0220558 -4.63518 2.59385 18.5885 0.422826 -7.4512 0.0 0.0 0.0 0.0 0.0 
2834.6163406 697.136 -1923.16612099 -11.7076902184 27.7952060089 5.14898778322 5.20987 -0.0591137 0.0517728 5.20987 -0.0622884 0.0479063 5.20982 -0.0676085 0.0400492 5.20982 -0.060435 0.0502241 -16.7064 3.11763 0.529078 -16.7394 5.68516 1.61944 -0.0 0.0 -0.0 5.37196 17.7831 10.3575 -64.6306 -71.4264 -6.63323 0.40941 -11.4648 0.0410987 2.43459 0.0793952 -0.300799 -7.20635 -20.5756 -73.0568 -0.0 0.0 -0.0 11.1921 11.8845 -22.4462 -39.8237 20.4223 -59.2712 0.368982 10.3585 -0.0334455 29.3099 -0.0871675 3.70256 4.73954 0.618078 -33.3622 0.0 0.0 0.0 7.89237 27.7048 5.31767 -5.427 0.185096 0.812007 40.9916 8.08276 -4.95039 -0.543524 0.0 0.0 -0.0 0.0 -0.0 46.4465 -15.2548 -0.0159264 -30.5639 -0.0220558 -4.63518 2.59385 18.5885 0.422826 -7.4512 0.0 0.0 0.0 0.0 0.0 
